<svg width="57" height="64" viewBox="0 0 57 64" fill="none" xmlns="http://www.w3.org/2000/svg">
<path d="M55.3382 12.7217L28.771 0.126645C28.415 -0.0422151 28.0267 -0.0422151 27.6707 0.126645L1.10348 12.7217C0.442935 13.0348 0.000883221 13.8732 1.32142e-06 14.8144C-0.000880578 15.7556 0.439738 16.5953 1.09973 16.9105L27.6669 29.6012C27.8461 29.6868 28.0335 29.7296 28.2208 29.7296C28.4082 29.7296 28.5955 29.6868 28.7746 29.6012L55.3418 16.9105C56.0018 16.5953 56.4423 15.7556 56.4416 14.8144C56.4407 13.8732 55.9986 13.0348 55.3382 12.7217Z" fill="#2D9CDB"/>
<path d="M52.4703 42.3789V22.9985L49.1632 24.5782V42.3789C48.1671 43.1493 47.4958 44.5928 47.4958 46.248C47.4958 47.9032 48.1671 49.3468 49.1632 50.1172V61.0362C49.1632 62.2633 49.9035 63.2581 50.8168 63.2581C51.73 63.2581 52.4703 62.2633 52.4703 61.0362V50.1173C53.4664 49.3471 54.1377 47.9033 54.1377 46.2482C54.1377 44.5929 53.4665 43.1493 52.4703 42.3789Z" fill="#2D9CDB"/>
<path d="M28.2207 34.1734C27.6531 34.1734 27.0941 34.0438 26.5591 33.7883L11.6238 26.6539V36.4312C11.6238 38.8233 13.481 40.8462 17.1438 42.4435C20.3363 43.8359 24.2703 44.6027 28.2207 44.6027C32.1712 44.6027 36.105 43.8359 39.2977 42.4435C42.9605 40.8462 44.8176 38.8233 44.8176 36.4312V26.6539L29.8825 33.7883C29.3474 34.0438 28.7884 34.1734 28.2207 34.1734Z" fill="#2D9CDB"/>
</svg>
