<svg width="282" height="64" viewBox="0 0 282 64" fill="none" xmlns="http://www.w3.org/2000/svg">
<path d="M85.7756 18.1818H90.1222C89.9229 12.5856 84.7614 8.40199 77.5895 8.40199C70.4901 8.40199 64.9119 12.5312 64.9119 18.7614C64.9119 23.7599 68.5341 26.7301 74.3295 28.3963L78.8935 29.7003C82.8054 30.7869 86.2827 32.1634 86.2827 35.858C86.2827 39.9148 82.3707 42.5952 77.2273 42.5952C72.8082 42.5952 68.8963 40.6392 68.5341 36.4375H63.8977C64.3324 42.5227 69.2585 46.652 77.2273 46.652C85.7756 46.652 90.6293 41.9432 90.6293 35.9304C90.6293 28.9759 84.0369 26.7301 80.1974 25.7159L76.4304 24.7017C73.6776 23.9773 69.2585 22.5284 69.2585 18.544C69.2585 14.9943 72.5185 12.3864 77.4446 12.3864C81.9361 12.3864 85.3409 14.5234 85.7756 18.1818ZM97.6894 46H101.964V35.5863L104.952 32.8153L115.366 46H120.799L108.176 30.0625L119.929 18.1818H114.641L102.471 30.5696H101.964V8.90909H97.6894V46ZM125.686 46H129.96V18.1818H125.686V46ZM127.859 13.5455C129.525 13.5455 130.902 12.2415 130.902 10.6477C130.902 9.05398 129.525 7.75 127.859 7.75C126.193 7.75 124.816 9.05398 124.816 10.6477C124.816 12.2415 126.193 13.5455 127.859 13.5455ZM142.317 8.90909H138.043V46H142.317V8.90909ZM154.675 8.90909H150.401V46H154.675V8.90909ZM163.338 46H176.74C185.505 46 189.128 41.7259 189.128 36.1477C189.128 30.2798 185.071 27.0923 181.666 26.875V26.5128C184.853 25.6435 187.679 23.5426 187.679 18.7614C187.679 13.3281 184.057 8.90909 176.305 8.90909H163.338V46ZM167.829 42.0156V29.1207H176.957C181.811 29.1207 184.853 32.3807 184.853 36.1477C184.853 39.4077 182.608 42.0156 176.74 42.0156H167.829ZM167.829 25.2088V12.8935H176.305C181.231 12.8935 183.405 15.5014 183.405 18.7614C183.405 22.6733 180.217 25.2088 176.16 25.2088H167.829ZM207.484 46.5795C215.018 46.5795 220.089 40.8565 220.089 32.2358C220.089 23.5426 215.018 17.8196 207.484 17.8196C199.95 17.8196 194.879 23.5426 194.879 32.2358C194.879 40.8565 199.95 46.5795 207.484 46.5795ZM207.484 42.7401C201.761 42.7401 199.153 37.8139 199.153 32.2358C199.153 26.6577 201.761 21.6591 207.484 21.6591C213.207 21.6591 215.815 26.6577 215.815 32.2358C215.815 37.8139 213.207 42.7401 207.484 42.7401ZM238.17 46.5795C245.704 46.5795 250.775 40.8565 250.775 32.2358C250.775 23.5426 245.704 17.8196 238.17 17.8196C230.636 17.8196 225.565 23.5426 225.565 32.2358C225.565 40.8565 230.636 46.5795 238.17 46.5795ZM238.17 42.7401C232.447 42.7401 229.839 37.8139 229.839 32.2358C229.839 26.6577 232.447 21.6591 238.17 21.6591C243.893 21.6591 246.501 26.6577 246.501 32.2358C246.501 37.8139 243.893 42.7401 238.17 42.7401ZM257.554 46H261.829V35.5863L264.817 32.8153L275.231 46H280.664L268.041 30.0625L279.795 18.1818H274.506L262.336 30.5696H261.829V8.90909H257.554V46Z" fill="#F6F6F6"/>
<path d="M55.3382 12.7217L28.771 0.126645C28.415 -0.0422151 28.0267 -0.0422151 27.6707 0.126645L1.10348 12.7217C0.442935 13.0348 0.000883221 13.8732 1.32142e-06 14.8144C-0.000880578 15.7556 0.439738 16.5953 1.09973 16.9105L27.6669 29.6012C27.8461 29.6868 28.0335 29.7296 28.2208 29.7296C28.4082 29.7296 28.5955 29.6868 28.7746 29.6012L55.3418 16.9105C56.0018 16.5953 56.4423 15.7556 56.4416 14.8144C56.4407 13.8732 55.9986 13.0348 55.3382 12.7217V12.7217Z" fill="#F7F7F7"/>
<path d="M52.4706 42.3789V22.9985L49.1634 24.5782V42.3789C48.1673 43.1493 47.4961 44.5928 47.4961 46.248C47.4961 47.9032 48.1673 49.3468 49.1634 50.1172V61.0362C49.1634 62.2633 49.9038 63.2581 50.817 63.2581C51.7302 63.2581 52.4706 62.2633 52.4706 61.0362V50.1173C53.4667 49.3471 54.1379 47.9033 54.1379 46.2482C54.1379 44.5929 53.4668 43.1493 52.4706 42.3789Z" fill="#F7F7F7"/>
<path d="M28.2209 34.1734C27.6533 34.1734 27.0943 34.0438 26.5593 33.7883L11.624 26.6539V36.4313C11.624 38.8233 13.4812 40.8462 17.1439 42.4436C20.3365 43.8359 24.2705 44.6028 28.2209 44.6028C32.1714 44.6028 36.1052 43.8359 39.2979 42.4436C42.9607 40.8462 44.8178 38.8233 44.8178 36.4313V26.6539L29.8826 33.7883C29.3476 34.0438 28.7885 34.1734 28.2209 34.1734V34.1734Z" fill="#F7F7F7"/>
</svg>
